<?xml version="1.0" encoding="UTF-8"?>
<svg id="Layer_2" data-name="Layer 2" xmlns="http://www.w3.org/2000/svg" xmlns:xlink="http://www.w3.org/1999/xlink" viewBox="0 0 1055.56 1600.08">
  <defs>
    <style>
      .cls-1 {
        fill: #606161;
      }

      .cls-2 {
        opacity: .1;
      }

      .cls-3 {
        clip-path: url(#clippath);
      }

      .cls-4 {
        fill: none;
      }
    </style>
    <clipPath id="clippath">
      <rect class="cls-4" width="1055.56" height="1600.08"/>
    </clipPath>
  </defs>
  <g id="Layer_1-2" data-name="Layer 1">
    <g class="cls-3">
      <g class="cls-2">
        <path class="cls-1" d="M572.72,878.56c-90.81-15.9-179.79-8.81-261.72,16.78l68.51-125.61c52.85,18.47,111.42,24.64,172.95,12.16,139.07-28.21,247.33-144.33,263.36-285.33,11.6-102.03-24-195.85-87.31-263.42,13.87-9.77,28.82-18.01,44.56-24.53,32.52-13.46,52.45-46.44,47.76-81.32h0c-6.64-49.27-57.99-79.85-104.04-61.09-45.62,18.58-87.24,45.82-122.54,80.04-52.46-17.92-110.48-23.68-171.36-11.29-139.22,28.34-247.33,145.05-262.92,286.26-11.4,103.18,25.36,198.02,90.3,265.57L43.81,1065.3c-20.26,37.14-6.57,83.67,30.57,103.92h0s6.27,3.93,6.27,3.93c31.85,19.96,72.78,12.64,97.6-15.59,75.87-86.27,185.27-135.69,302.85-134.23,207.98,2.58,382.16,170.8,391.63,378.58,9.33,204.76-137.35,377.81-331.06,410.16-37.53,6.27-65.62,37.66-65.62,75.71h0c0,47.33,42.53,83.3,89.24,75.65,276.76-45.32,484.75-297.86,458.86-592.52-21.58-245.62-208.55-449.83-451.42-492.34Zm-114.72-594.59c120.87-19.94,224.34,83.58,204.33,204.45-12.12,73.22-71.2,132.26-144.43,144.34-120.87,19.94-224.34-83.58-204.33-204.45,12.12-73.22,71.2-132.26,144.43-144.35Z"/>
      </g>
    </g>
  </g>
</svg>