<?xml version="1.0" encoding="UTF-8"?>
<svg id="Layer_2" data-name="Layer 2" xmlns="http://www.w3.org/2000/svg" xmlns:xlink="http://www.w3.org/1999/xlink" viewBox="0 0 642.04 214.32">
  <defs>
    <style>
      .cls-1 {
        fill: url(#linear-gradient);
      }

      .cls-2 {
        fill: #010101;
      }
    </style>
    <linearGradient id="linear-gradient" x1="16.26" y1="-12.73" x2="95.7" y2="201.63" gradientUnits="userSpaceOnUse">
      <stop offset="0" stop-color="#1d63af"/>
      <stop offset=".22" stop-color="#39aee3"/>
      <stop offset=".42" stop-color="#00b6a6"/>
      <stop offset=".64" stop-color="#00ac5b"/>
      <stop offset=".82" stop-color="#febb12"/>
      <stop offset="1" stop-color="#f6851f"/>
    </linearGradient>
  </defs>
  <g id="Layer_1-2" data-name="Layer 1">
    <g>
      <g>
        <g>
          <path class="cls-2" d="M134.67,40.18c-3.82,0-7.27,.61-10.36,1.83-3.09,1.22-5.33,3.01-6.71,5.38v31.09h-15.79V27.25h14.51v9.87c1.78-3.49,4.08-6.22,6.91-8.19,2.83-1.97,5.79-2.99,8.88-3.06h1.63c.36,0,.68,.03,.94,.1v14.21Z"/>
          <path class="cls-2" d="M165.66,79.45c-4.41,0-8.32-.7-11.74-2.1-3.42-1.4-6.33-3.3-8.73-5.71-2.4-2.41-4.23-5.19-5.48-8.34-1.25-3.15-1.87-6.46-1.87-9.9,0-4.91,1.1-9.38,3.3-13.42,2.2-4.04,5.38-7.3,9.52-9.79,4.14-2.49,9.14-3.73,15-3.73s10.84,1.23,14.95,3.69c4.11,2.46,7.25,5.68,9.43,9.67,2.17,3.98,3.26,8.31,3.26,12.97,0,.91-.05,1.8-.15,2.67s-.18,1.63-.25,2.28h-38.29c.2,2.24,.84,4.13,1.92,5.66,1.08,1.54,2.48,2.7,4.19,3.5,1.71,.8,3.52,1.2,5.43,1.2,2.37,0,4.59-.56,6.66-1.68,2.07-1.12,3.5-2.63,4.29-4.54l13.42,3.75c-1.32,2.7-3.18,5.08-5.58,7.15-2.4,2.07-5.23,3.7-8.49,4.88-3.26,1.18-6.86,1.78-10.81,1.78Zm-11.45-31.38h22.5c-.26-2.07-.89-3.87-1.88-5.41-.99-1.54-2.3-2.73-3.95-3.58-1.65-.85-3.45-1.27-5.43-1.27s-3.87,.42-5.48,1.27c-1.61,.85-2.91,2.04-3.9,3.58-.99,1.54-1.61,3.34-1.87,5.41Z"/>
          <path class="cls-2" d="M225.26,79.45c-4.41,0-8.32-.7-11.74-2.1-3.42-1.4-6.33-3.3-8.73-5.71-2.4-2.41-4.23-5.19-5.48-8.34-1.25-3.15-1.87-6.46-1.87-9.9,0-4.91,1.1-9.38,3.3-13.42,2.2-4.04,5.38-7.3,9.52-9.79,4.14-2.49,9.14-3.73,15-3.73s10.84,1.23,14.95,3.69c4.11,2.46,7.25,5.68,9.43,9.67,2.17,3.98,3.26,8.31,3.26,12.97,0,.91-.05,1.8-.15,2.67s-.18,1.63-.25,2.28h-38.29c.2,2.24,.84,4.13,1.92,5.66,1.08,1.54,2.48,2.7,4.19,3.5,1.71,.8,3.52,1.2,5.43,1.2,2.37,0,4.59-.56,6.66-1.68,2.07-1.12,3.5-2.63,4.29-4.54l13.42,3.75c-1.32,2.7-3.18,5.08-5.58,7.15-2.4,2.07-5.23,3.7-8.49,4.88-3.26,1.18-6.86,1.78-10.81,1.78Zm-11.45-31.38h22.5c-.26-2.07-.89-3.87-1.88-5.41-.99-1.54-2.3-2.73-3.95-3.58-1.65-.85-3.45-1.27-5.43-1.27s-3.87,.42-5.48,1.27c-1.61,.85-2.91,2.04-3.9,3.58-.99,1.54-1.61,3.34-1.87,5.41Z"/>
          <path class="cls-2" d="M310.03,78.47h-15.79v-28.52c0-3.35-.64-5.78-1.92-7.3-1.28-1.51-2.98-2.27-5.08-2.27-1.45,0-2.93,.38-4.44,1.14-1.51,.76-2.88,1.81-4.1,3.13-1.22,1.33-2.16,2.85-2.81,4.56v29.26h-15.79V27.25h14.21v8.74c1.31-2.01,2.96-3.73,4.93-5.15,1.97-1.43,4.24-2.51,6.81-3.26,2.57-.74,5.36-1.12,8.39-1.12,3.35,0,6.07,.6,8.14,1.8,2.07,1.2,3.65,2.77,4.74,4.71,1.08,1.94,1.81,4.03,2.17,6.27,.36,2.24,.54,4.42,.54,6.56v32.66Z"/>
        </g>
        <g>
          <path class="cls-2" d="M131.49,194.68V102.67h61.59v15.68h-43.77v23.72h36.41v14.52h-36.41v38.1h-17.82Z"/>
          <path class="cls-2" d="M231.3,195.98c-5.42,0-10.33-.92-14.72-2.75-4.39-1.84-8.14-4.36-11.23-7.56-3.1-3.2-5.49-6.88-7.17-11.02-1.68-4.14-2.52-8.52-2.52-13.14,0-6.41,1.44-12.26,4.33-17.56,2.88-5.3,7.02-9.55,12.4-12.75,5.38-3.2,11.73-4.81,19.04-4.81s13.73,1.61,18.98,4.81c5.25,3.21,9.27,7.45,12.07,12.71,2.8,5.26,4.19,10.93,4.19,17.01,0,1.03-.04,2.08-.13,3.14-.09,1.07-.17,1.95-.26,2.63h-52.29c.34,3.38,1.35,6.33,3.03,8.86,1.68,2.53,3.83,4.46,6.45,5.76,2.62,1.31,5.44,1.96,8.46,1.96,3.44,0,6.69-.84,9.75-2.53,3.05-1.68,5.14-3.91,6.26-6.67l14.85,4.15c-1.64,3.46-3.98,6.52-7.04,9.2-3.06,2.68-6.65,4.77-10.78,6.29s-8.7,2.27-13.69,2.27Zm-17.69-40.3h35.38c-.35-3.38-1.31-6.31-2.91-8.8-1.59-2.49-3.68-4.43-6.26-5.83-2.58-1.39-5.47-2.09-8.65-2.09s-5.92,.7-8.46,2.09c-2.54,1.39-4.61,3.34-6.2,5.83-1.59,2.49-2.56,5.42-2.91,8.8Z"/>
          <path class="cls-2" d="M302.18,195.98c-5.77,0-11.28-.95-16.53-2.85-5.25-1.9-9.77-4.71-13.56-8.42l6.2-11.27c4.04,3.28,8.03,5.7,11.94,7.26,3.91,1.56,7.68,2.33,11.3,2.33,3.36,0,6.04-.58,8.07-1.75,2.02-1.17,3.04-2.92,3.04-5.25,0-1.62-.56-2.88-1.68-3.77-1.12-.9-2.73-1.68-4.84-2.37-2.11-.68-4.67-1.45-7.68-2.3-4.99-1.62-9.17-3.2-12.52-4.73-3.36-1.53-5.88-3.48-7.55-5.82-1.68-2.35-2.52-5.35-2.52-9.02,0-4.44,1.14-8.25,3.42-11.45,2.28-3.2,5.46-5.69,9.55-7.48,4.09-1.79,8.89-2.69,14.4-2.69,4.82,0,9.38,.76,13.69,2.27,4.3,1.51,8.22,3.95,11.75,7.32l-6.97,11.02c-3.44-2.68-6.71-4.64-9.81-5.9-3.1-1.25-6.24-1.88-9.43-1.88-1.81,0-3.51,.21-5.1,.64-1.59,.43-2.88,1.13-3.87,2.11-.99,.98-1.48,2.36-1.48,4.14,0,1.62,.45,2.87,1.35,3.76,.91,.89,2.28,1.68,4.13,2.36,1.85,.68,4.11,1.45,6.78,2.3,5.42,1.53,10.01,3.1,13.75,4.72s6.56,3.59,8.46,5.93c1.89,2.34,2.84,5.55,2.84,9.63,0,6.63-2.45,11.82-7.36,15.56-4.91,3.74-11.49,5.61-19.75,5.61Z"/>
          <path class="cls-2" d="M381.19,191.31c-1.46,.61-3.23,1.3-5.29,2.07-2.07,.78-4.28,1.4-6.65,1.88-2.37,.47-4.76,.71-7.17,.71-3.19,0-6.11-.56-8.78-1.67-2.67-1.11-4.8-2.89-6.39-5.33-1.6-2.44-2.39-5.63-2.39-9.56v-38.65h-8.91v-13.35h8.91v-22.03h17.3v22.03h14.2v13.35h-14.2v32.75c.08,2.3,.73,3.97,1.94,4.99,1.2,1.02,2.71,1.53,4.52,1.53s3.57-.3,5.29-.91c1.72-.6,3.1-1.12,4.13-1.56l3.49,13.74Z"/>
          <path class="cls-2" d="M390.23,117.31v-17.24h17.3v17.24h-17.3Zm0,77.37V126.77h17.3v67.91h-17.3Z"/>
          <path class="cls-2" d="M441.36,194.68l-24.92-67.26h17.95l17.04,51.6,17.17-51.6h16.4l-24.79,67.26h-18.85Z"/>
          <path class="cls-2" d="M487.71,174.85c0-4.35,1.23-8.17,3.68-11.46,2.45-3.29,5.87-5.83,10.26-7.62,4.39-1.79,9.43-2.69,15.1-2.69,2.84,0,5.72,.22,8.65,.65,2.92,.43,5.46,1.12,7.62,2.07v-3.61c0-4.24-1.27-7.51-3.81-9.8-2.54-2.29-6.31-3.44-11.3-3.44-3.7,0-7.23,.65-10.59,1.94-3.36,1.3-6.89,3.2-10.59,5.7l-5.55-11.41c4.48-2.94,9.06-5.14,13.75-6.61,4.69-1.47,9.62-2.2,14.78-2.2,9.64,0,17.15,2.39,22.53,7.16,5.38,4.77,8.07,11.58,8.07,20.44v21.34c0,1.79,.32,3.07,.97,3.83,.65,.77,1.7,1.24,3.16,1.41v14.13c-1.55,.26-2.95,.47-4.19,.65-1.25,.17-2.3,.26-3.16,.26-3.44,0-6.05-.78-7.81-2.33-1.76-1.56-2.86-3.45-3.29-5.7l-.39-3.5c-2.93,3.8-6.59,6.74-10.97,8.81-4.39,2.07-8.87,3.11-13.43,3.11s-8.5-.92-12.07-2.75c-3.57-1.84-6.37-4.35-8.39-7.56-2.02-3.2-3.03-6.81-3.03-10.82Zm42.09,3.37c.95-1.01,1.72-2.02,2.32-3.03,.6-1.01,.9-1.94,.9-2.78v-6.7c-2.07-.84-4.3-1.49-6.71-1.96-2.41-.46-4.69-.7-6.84-.7-4.48,0-8.15,.95-11.04,2.84-2.88,1.9-4.33,4.4-4.33,7.52,0,1.68,.47,3.29,1.42,4.8,.95,1.52,2.33,2.74,4.13,3.66,1.81,.93,3.96,1.39,6.45,1.39s5.12-.48,7.62-1.45c2.49-.97,4.52-2.17,6.07-3.6Z"/>
          <path class="cls-2" d="M566.33,100.08h17.3v73.07c0,3.12,.52,5.22,1.55,6.31,1.03,1.08,2.45,1.62,4.26,1.62,1.38,0,2.8-.17,4.26-.52,1.46-.34,2.76-.78,3.87-1.3l2.33,13.22c-2.33,1.12-5.04,1.99-8.14,2.59-3.1,.6-5.9,.91-8.39,.91-5.42,0-9.62-1.45-12.59-4.35-2.97-2.9-4.45-7.04-4.45-12.41V100.08Z"/>
        </g>
        <g>
          <path class="cls-2" d="M333.95,78.18V8.11h47.57v14.21h-31.38v15.1h25.86v13.13h-25.86v27.63h-16.19Z"/>
          <path class="cls-2" d="M386.94,59.74V26.96h15.79v29.26c0,3.11,.62,5.49,1.88,7.15,1.25,1.65,3.03,2.48,5.33,2.48,1.45,0,2.83-.24,4.15-.72,1.31-.48,2.6-1.26,3.85-2.34,1.25-1.08,2.37-2.49,3.35-4.21V26.96h15.79V60.68c0,1.56,.25,2.64,.74,3.26,.49,.62,1.36,.99,2.61,1.12v13.12c-1.45,.26-2.71,.46-3.8,.59-1.08,.13-2.06,.2-2.91,.2-2.76,0-4.97-.57-6.61-1.71-1.65-1.14-2.66-2.75-3.06-4.83l-.3-3.12c-2.37,3.38-5.31,5.87-8.83,7.47-3.52,1.59-7.45,2.39-11.79,2.39-5.26,0-9.28-1.66-12.04-4.98-2.76-3.32-4.14-8.13-4.14-14.44Z"/>
          <path class="cls-2" d="M482.57,75.41c-1.45,.59-3.04,1.18-4.79,1.78-1.74,.59-3.57,1.07-5.48,1.43-1.91,.36-3.79,.54-5.63,.54-2.63,0-5.05-.44-7.25-1.31-2.2-.88-3.95-2.32-5.23-4.33-1.28-2.01-1.92-4.67-1.92-7.98v-26.65h-6.61v-11.94h6.61V10.48h15.79V26.96h10.56v11.94h-10.56v21.13c0,1.67,.43,2.88,1.28,3.62,.85,.74,1.94,1.11,3.26,1.11,1.12,0,2.32-.2,3.6-.59,1.28-.4,2.38-.82,3.31-1.28l3.06,12.53Z"/>
          <path class="cls-2" d="M488.19,59.74V26.96h15.79v29.26c0,3.11,.62,5.49,1.88,7.15,1.25,1.65,3.03,2.48,5.33,2.48,1.45,0,2.83-.24,4.15-.72,1.31-.48,2.6-1.26,3.85-2.34,1.25-1.08,2.37-2.49,3.35-4.21V26.96h15.79V60.68c0,1.56,.25,2.64,.74,3.26,.49,.62,1.36,.99,2.61,1.12v13.12c-1.45,.26-2.71,.46-3.8,.59-1.08,.13-2.06,.2-2.91,.2-2.76,0-4.97-.57-6.61-1.71-1.65-1.14-2.66-2.75-3.06-4.83l-.3-3.12c-2.37,3.38-5.31,5.87-8.83,7.47-3.52,1.59-7.45,2.39-11.79,2.39-5.26,0-9.28-1.66-12.04-4.98-2.76-3.32-4.14-8.13-4.14-14.44Z"/>
          <path class="cls-2" d="M583.43,39.89c-3.82,0-7.27,.61-10.36,1.83-3.09,1.22-5.33,3.01-6.71,5.38v31.09h-15.79V26.96h14.51v9.87c1.78-3.49,4.08-6.22,6.91-8.19,2.83-1.97,5.79-2.99,8.88-3.06h1.63c.36,0,.68,.03,.94,.1v14.21Z"/>
          <path class="cls-2" d="M614.41,79.16c-4.41,0-8.32-.7-11.74-2.1-3.42-1.4-6.33-3.3-8.73-5.71-2.4-2.41-4.23-5.19-5.48-8.34-1.25-3.16-1.87-6.46-1.87-9.9,0-4.91,1.1-9.38,3.3-13.42,2.2-4.04,5.38-7.3,9.52-9.79,4.14-2.49,9.14-3.73,15-3.73s10.84,1.23,14.95,3.69c4.11,2.46,7.25,5.68,9.43,9.67,2.17,3.98,3.26,8.31,3.26,12.97,0,.91-.05,1.8-.15,2.67-.1,.87-.18,1.64-.25,2.28h-38.29c.2,2.24,.84,4.13,1.92,5.66,1.08,1.53,2.48,2.7,4.19,3.5,1.71,.8,3.52,1.2,5.43,1.2,2.37,0,4.59-.56,6.66-1.68,2.07-1.12,3.5-2.63,4.29-4.54l13.42,3.75c-1.32,2.7-3.18,5.08-5.58,7.15-2.4,2.07-5.23,3.7-8.49,4.89-3.26,1.18-6.86,1.78-10.81,1.78Zm-11.45-31.38h22.5c-.26-2.07-.89-3.87-1.88-5.41-.99-1.54-2.3-2.73-3.95-3.58-1.65-.85-3.45-1.27-5.43-1.27s-3.87,.42-5.48,1.27c-1.61,.85-2.91,2.04-3.9,3.58-.99,1.54-1.61,3.34-1.87,5.41Z"/>
        </g>
        <polygon class="cls-2" points="147.45 71.94 147.45 71.9 147.43 71.94 147.45 71.94"/>
      </g>
      <path class="cls-1" d="M60.6,92.08c-10.22-1.79-20.24-.99-29.46,1.89l7.71-14.14c5.95,2.08,12.54,2.77,19.47,1.37,15.66-3.18,27.84-16.25,29.65-32.12,1.31-11.49-2.7-22.05-9.83-29.65,1.56-1.1,3.24-2.03,5.02-2.76,3.66-1.52,5.9-5.23,5.38-9.15h0c-.75-5.55-6.53-8.99-11.71-6.88-5.14,2.09-9.82,5.16-13.8,9.01-5.91-2.02-12.44-2.67-19.29-1.27-15.67,3.19-27.84,16.33-29.6,32.23-1.28,11.62,2.86,22.29,10.17,29.9L1.05,113.1c-2.28,4.18-.74,9.42,3.44,11.7h0s.71,.44,.71,.44c3.59,2.25,8.19,1.42,10.99-1.75,8.54-9.71,20.86-15.27,34.09-15.11,23.41,.29,43.02,19.23,44.09,42.62,1.05,23.05-15.46,42.53-37.27,46.17-4.22,.71-7.39,4.24-7.39,8.52h0c0,5.33,4.79,9.38,10.05,8.52,31.16-5.1,54.57-33.53,51.66-66.7-2.43-27.65-23.48-50.64-50.82-55.42ZM47.68,25.15c13.61-2.25,25.25,9.41,23,23.02-1.36,8.24-8.01,14.89-16.26,16.25-13.61,2.25-25.25-9.41-23-23.02,1.36-8.24,8.01-14.89,16.26-16.25Z"/>
    </g>
  </g>
</svg>