<?xml version="1.0" encoding="UTF-8"?>
<svg id="Layer_2" data-name="Layer 2" xmlns="http://www.w3.org/2000/svg" viewBox="0 0 213.88 49.2">
  <defs>
    <style>
      .cls-1 {
        fill: #00aa4f;
      }

      .cls-2 {
        fill: #595a5c;
      }
    </style>
  </defs>
  <g id="Layer_1-2" data-name="Layer 1">
    <g>
      <g>
        <path class="cls-2" d="M102.38,48.78h-1.14v-.68c0-5.57,0-11.15,0-16.72,0-1.77,.62-2.84,1.9-3.27,1.66-.56,3.3-.11,4.31,1.21,.3,.39,.55,.82,.8,1.25,2.95,5.17,5.9,10.35,8.85,15.52,.23,.41,.49,.82,.8,1.17,.71,.81,2.06,1.06,3.03,.59,.79-.39,1.06-1.08,1.06-1.92,0-2.81,0-5.62,0-8.42,0-2.81,0-5.62,0-8.42v-.75h1.11v17.25c0,.06,0,.13,0,.19-.02,1.72-.61,2.74-1.84,3.17-1.6,.57-3.3,.15-4.3-1.09-.31-.38-.56-.82-.8-1.25-3-5.27-5.99-10.54-8.99-15.81-.51-.89-1.11-1.64-2.23-1.78-1.59-.2-2.55,.59-2.55,2.2,0,5.57,0,11.15,0,16.72v.84Z"/>
        <path class="cls-2" d="M180.56,38.17v-.92s.07-.09,.1-.09c1.96,0,3.94-.09,5.89,.03,2.28,.14,3.65,1.46,4.15,3.7,.3,1.33,.26,2.66-.09,3.98-.57,2.14-1.98,3.56-4.14,3.75-2.46,.22-4.98,.25-7.42-.05-3.63-.45-5.8-2.75-6.6-6.29-.57-2.54-.57-5.1,.05-7.64,.92-3.76,3.55-6.07,7.43-6.26,3.21-.16,9.81-.07,9.81-.07v1.07h-.69c-2.57,0-5.14-.03-7.71,.01-.9,.01-1.82,.1-2.69,.31-2.57,.62-4.23,2.27-4.94,4.8-.74,2.63-.76,5.29-.04,7.93,.84,3.12,3.12,5,6.34,5.2,1.7,.1,3.41,.12,5.11,.06,3.06-.12,4.69-1.84,4.73-4.91,0-.55-.06-1.12-.19-1.67-.44-1.85-1.71-2.88-3.61-2.93-1.58-.04-3.15-.01-4.73-.02h-.77"/>
        <path class="cls-2" d="M213.88,28.35c-.18,.24-.33,.45-.49,.64-2.86,3.52-5.74,7.03-8.58,10.56-.21,.26-.35,.65-.35,.98-.03,2.51-.02,5.01-.02,7.52v.73h-1.08c-.01-.23-.03-.45-.03-.68,0-2.5,.01-5.01-.02-7.52,0-.37-.16-.81-.4-1.1-2.86-3.55-5.75-7.07-8.63-10.61-.12-.15-.23-.3-.35-.46,.87-.29,1.21-.2,1.72,.44,2.62,3.27,5.23,6.55,7.84,9.82,.11,.13,.22,.26,.37,.44,.71-.88,1.4-1.73,2.09-2.59,2.03-2.53,4.08-5.03,6.07-7.59,.51-.66,1.06-.75,1.84-.59"/>
        <path class="cls-2" d="M163.16,40.35c.82-.29,1.63-.47,2.35-.84,2.3-1.17,3.43-3.98,2.81-6.79-.57-2.6-2.5-4.31-5.22-4.37-3.72-.09-7.45-.05-11.17-.05h0s-1.17,0-1.17,0v17.67h0c0,.84,0,1.67,0,2.51,0,.1,.03,.2,.05,.29h1.09v-.74c0-.69,0-1.38,0-2.07h.02v-5.32c.07-.29,.27-.4,.72-.4,2.85,.03,5.7,.02,8.55,0,.41,0,.66,.11,.9,.46,1.65,2.45,3.35,4.87,4.98,7.34,.45,.69,.95,.91,1.77,.68-1.91-2.82-3.8-5.61-5.67-8.38Zm-1.22-1.16c-3.26,.03-6.52,0-9.78,.02-.08,0-.16,0-.24,.01v-9.85c3.32,0,6.6,0,9.87,0,.54,0,1.08,.03,1.61,.11,2.24,.33,3.75,1.9,3.94,4.08,.22,2.52-.98,4.63-3.11,5.31-.72,.23-1.52,.31-2.29,.32Z"/>
        <path class="cls-2" d="M95.75,39.3v-1.01h-16.33v-5.63c0-1.85,1.55-3.36,3.45-3.36h12.88v-1h-12.88c-2.45,0-4.44,1.95-4.44,4.35v11.83c0,2.4,1.99,4.35,4.44,4.35h12.88v-.99h-12.88c-1.9,0-3.45-1.51-3.45-3.36v-5.19h16.33Z"/>
        <path class="cls-2" d="M132.39,47.84c-1.9,0-3.45-1.51-3.45-3.36v-5.19h16.33v-1.01h-16.33v-5.63c0-1.85,1.55-3.36,3.45-3.36h12.88v-1h-12.88c-2.45,0-4.44,1.95-4.44,4.35v11.83c0,2.4,1.99,4.35,4.44,4.35h12.88v-.99h-12.88Z"/>
      </g>
      <g>
        <path class="cls-1" d="M84.81,16.43c-2.47,.47-4.59-1.97-4.51-4.38-.03-2.42,2.16-4.81,4.62-4.26-.9,2.13-.98,3.23-1.01,4.31,0,1.08,.04,2.19,.9,4.34"/>
        <path class="cls-1" d="M62.35,7.49c2.47-.47,4.59,1.97,4.51,4.38,.03,2.42-2.16,4.81-4.62,4.26,.9-2.13,.98-3.23,1.01-4.31,0-1.08-.04-2.19-.9-4.34"/>
        <path class="cls-1" d="M75.33,23.92c-1.64-1.91-.6-4.96,1.54-6.1,2.08-1.24,5.24-.53,6,1.87-2.29,.28-3.29,.77-4.24,1.28-.94,.53-1.88,1.13-3.31,2.94"/>
        <path class="cls-1" d="M71.83,0c1.64,1.91,.6,4.96-1.54,6.1-2.08,1.24-5.24,.53-6-1.87,2.29-.28,3.29-.77,4.24-1.28,.94-.53,1.88-1.13,3.31-2.94"/>
        <path class="cls-1" d="M64.09,19.45c.83-2.38,4-3,6.05-1.71,2.11,1.18,3.08,4.27,1.38,6.13-1.39-1.85-2.31-2.47-3.23-3.03-.93-.55-1.92-1.06-4.2-1.39"/>
        <path class="cls-1" d="M83.06,4.47c-.83,2.38-4,3-6.05,1.71-2.11-1.18-3.08-4.27-1.38-6.13,1.39,1.85,2.31,2.47,3.23,3.03,.93,.55,1.92,1.06,4.2,1.39"/>
        <path class="cls-1" d="M64.46,28.21h2.23c0,5.51,0,11.02-.01,16.53,0,.63-.09,1.28-.29,1.88-.44,1.3-1.41,2.07-2.76,2.26-.71,.1-1.45,.1-2.16,.03-1.02-.1-1.97-.62-2.56-1.45-.44-.62-.82-1.29-1.16-1.98-2.25-4.54-4.48-9.09-6.72-13.63-.5-1-1.13-1.38-2.1-1.23-.59,.09-1.08,.59-1.13,1.19-.01,.18-.01,.36-.01,.54,0,4.56,0,13.27,0,15.66,0,.34-.28,.62-.62,.62h-2.24c0-5.52,0-11.03,0-16.55,0-1.1,.19-2.16,1.04-3.08,.48-.51,1.13-.85,1.81-1.01,.87-.21,1.74-.21,2.62-.03,1.01,.21,1.89,.83,2.46,1.69,.38,.59,.74,1.2,1.05,1.83,2.23,4.49,4.45,8.98,6.67,13.47,.1,.21,.22,.42,.36,.61,.5,.67,1.38,.89,2.14,.54,.34-.15,.62-.46,.7-.83,.06-.26,.06-.54,.06-.81,0-4.55,0-13.25,0-15.63,0-.34,.28-.61,.62-.61"/>
        <path class="cls-1" d="M.37,48.61v-2.18c0-.34,.28-.62,.62-.62h3.57c2.42,0,5.36,0,7.26,0,.41,0,.83-.02,1.24-.09,1.38-.24,2.27-1.26,2.34-2.67,.02-.41,0-.83-.09-1.23-.24-1.17-1.07-1.78-2.16-2.04-.52-.12-1.06-.15-1.6-.16-1.67-.02-3.34,0-5.01,0-1.04,0-2.08-.08-3.07-.44-1.93-.7-3.08-2.04-3.38-4.09-.14-.96-.14-1.92,.08-2.87,.5-2.14,1.98-3.52,4.22-3.87,.58-.09,1.18-.14,1.77-.14,3.36-.01,6.72,0,10.08,0h.29v2.2c0,.34-.28,.62-.62,.62-1.78,0-6.92,0-9.64,0-.43,0-.86,.02-1.28,.09-1.2,.21-2.09,1.27-2.16,2.49-.02,.41,0,.84,.09,1.24,.28,1.14,1.12,1.68,2.2,1.89,.46,.09,.93,.12,1.4,.12,1.8,.02,3.61,0,5.41,.02,1.41,.01,2.77,.29,4.02,1.06,1.13,.7,1.87,1.91,2.12,3.21,.22,1.14,.23,2.28-.03,3.41-.5,2.19-1.96,3.4-4.08,3.87-.63,.14-1.29,.2-1.93,.2-3.8,.02-7.59,0-11.39,0-.09,0-.18,0-.3-.01"/>
        <path class="cls-1" d="M22.36,28.2h2.25c.34,0,.62,.28,.62,.62,0,2.14,0,9.24,0,12.97,0,.5,.04,1.01,.15,1.5,.32,1.4,1.28,2.24,2.74,2.44,.3,.04,.6,.07,.9,.07,1.47,0,2.93,.01,4.4,0,.41,0,.83-.06,1.23-.16,1.36-.34,2.21-1.33,2.39-2.74,.05-.37,.07-.74,.07-1.1,0-3.73,0-10.83,0-12.96,0-.34,.28-.62,.62-.62h2.14s0,0,.02,.02c0,4.63,.02,9.26-.01,13.89,0,.87-.1,1.78-.32,2.62-.55,2.07-2,3.25-4.07,3.68-.61,.13-1.24,.19-1.86,.21-1.68,.03-3.36,.04-5.04,0-.74-.02-1.5-.11-2.22-.29-2.18-.55-3.43-2.01-3.83-4.19-.12-.68-.17-1.38-.17-2.07-.01-4.49,0-8.98,0-13.47v-.38Z"/>
      </g>
    </g>
  </g>
</svg>