<?xml version="1.0" encoding="UTF-8"?>
<svg id="Layer_2" data-name="Layer 2" xmlns="http://www.w3.org/2000/svg" viewBox="0 0 187.38 49.2">
  <defs>
    <style>
      .cls-1 {
        fill: #f6851f;
      }

      .cls-2 {
        fill: #595a5c;
      }
    </style>
  </defs>
  <g id="Layer_1-2" data-name="Layer 1">
    <g>
      <path class="cls-1" d="M85.27,16.52c-2.49,.47-4.62-1.98-4.53-4.4-.03-2.43,2.17-4.83,4.65-4.29-.91,2.14-.99,3.25-1.01,4.33,0,1.08,.04,2.2,.9,4.36"/>
      <path class="cls-1" d="M62.68,7.53c2.49-.47,4.62,1.98,4.53,4.4,.03,2.43-2.17,4.83-4.65,4.29,.91-2.14,.99-3.25,1.01-4.33,0-1.08-.04-2.2-.9-4.36"/>
      <path class="cls-1" d="M75.73,24.05c-1.65-1.92-.6-4.99,1.55-6.13,2.09-1.24,5.27-.53,6.03,1.88-2.31,.28-3.31,.77-4.26,1.29-.94,.53-1.89,1.14-3.32,2.96"/>
      <path class="cls-1" d="M72.22,0c1.65,1.92,.6,4.99-1.55,6.13-2.09,1.24-5.27,.53-6.03-1.88,2.31-.28,3.31-.77,4.26-1.29,.94-.53,1.89-1.14,3.32-2.96"/>
      <path class="cls-1" d="M64.44,19.56c.83-2.39,4.02-3.01,6.08-1.72,2.12,1.19,3.1,4.3,1.39,6.17-1.4-1.86-2.32-2.48-3.25-3.04-.93-.55-1.93-1.06-4.23-1.4"/>
      <path class="cls-1" d="M83.51,4.49c-.83,2.39-4.02,3.01-6.08,1.72-2.12-1.19-3.1-4.3-1.39-6.17,1.4,1.86,2.32,2.48,3.25,3.04,.93,.55,1.93,1.06,4.23,1.4"/>
      <path class="cls-1" d="M64.8,28.34h2.24c0,5.54,0,11.08-.01,16.62,0,.63-.09,1.29-.29,1.89-.44,1.3-1.42,2.08-2.77,2.27-.71,.1-1.45,.1-2.17,.03-1.02-.1-1.98-.62-2.57-1.46-.44-.62-.82-1.3-1.16-1.99-2.26-4.57-4.51-9.14-6.76-13.71-.5-1.01-1.14-1.39-2.12-1.24-.6,.09-1.08,.59-1.13,1.19-.01,.18-.01,.36-.01,.54,0,4.58,0,13.34,0,15.74,0,.35-.28,.62-.63,.62h-2.25c0-5.54,0-11.09,0-16.63,0-1.1,.19-2.17,1.05-3.1,.48-.52,1.13-.85,1.82-1.01,.87-.21,1.75-.22,2.63-.03,1.01,.21,1.9,.83,2.47,1.7,.39,.59,.74,1.21,1.06,1.84,2.24,4.51,4.47,9.03,6.71,13.54,.11,.21,.22,.42,.36,.61,.5,.67,1.38,.89,2.15,.55,.34-.15,.62-.46,.7-.83,.06-.27,.07-.54,.07-.82,0-4.58,0-13.32,0-15.71,0-.34,.28-.62,.62-.62"/>
      <path class="cls-1" d="M.37,48.86v-2.19c0-.35,.28-.63,.63-.63h3.59c2.44,0,5.39,0,7.3,0,.41,0,.84-.02,1.24-.09,1.39-.25,2.28-1.27,2.35-2.68,.02-.41,0-.84-.09-1.24-.24-1.18-1.07-1.79-2.17-2.05-.52-.12-1.07-.15-1.61-.16-1.68-.02-3.36,0-5.03,0-1.05,0-2.09-.08-3.09-.44-1.94-.7-3.1-2.05-3.39-4.11-.14-.97-.14-1.93,.08-2.89,.5-2.15,1.99-3.54,4.24-3.89,.59-.09,1.19-.14,1.78-.14,3.38-.01,6.76,0,10.13,0h.29v2.21c0,.35-.28,.62-.62,.62-1.78,0-6.96,0-9.69,0-.43,0-.87,.02-1.29,.09-1.21,.21-2.1,1.28-2.17,2.5-.02,.41,0,.85,.09,1.25,.28,1.15,1.13,1.69,2.22,1.9,.46,.09,.94,.12,1.41,.12,1.81,.02,3.63,0,5.44,.02,1.42,.01,2.78,.29,4.05,1.07,1.14,.7,1.88,1.92,2.13,3.23,.22,1.15,.23,2.29-.03,3.43-.51,2.2-1.97,3.42-4.1,3.89-.63,.14-1.29,.2-1.94,.21-3.82,.02-7.63,0-11.45,0-.09,0-.18,0-.3-.01"/>
      <path class="cls-1" d="M22.48,28.34h2.26c.35,0,.63,.28,.63,.62,0,2.15,0,9.29,0,13.04,0,.5,.04,1.02,.15,1.51,.32,1.41,1.29,2.25,2.75,2.46,.3,.04,.6,.07,.91,.07,1.47,0,2.95,.01,4.42,0,.41,0,.83-.06,1.23-.16,1.37-.34,2.23-1.33,2.4-2.76,.05-.37,.07-.74,.07-1.11,0-3.75,0-10.89,0-13.03,0-.35,.28-.62,.63-.62h2.15s0,0,.02,.02c0,4.65,.02,9.31-.01,13.96,0,.88-.1,1.79-.32,2.63-.56,2.09-2.01,3.27-4.09,3.7-.61,.13-1.25,.2-1.87,.21-1.69,.03-3.38,.04-5.07,0-.75-.02-1.51-.11-2.23-.3-2.19-.56-3.45-2.02-3.85-4.22-.12-.68-.17-1.39-.17-2.08-.01-4.51,0-9.03,0-13.54v-.38Z"/>
      <polygon class="cls-2" points="86.14 29.55 78.84 29.55 78.84 28.47 94.5 28.47 94.5 29.54 87.25 29.54 87.25 49.11 86.14 49.11 86.14 29.55"/>
      <path class="cls-2" d="M133.32,40.51c.12-.02,.16-.03,.2-.03,2.34-.33,4.05-1.48,4.85-3.78,.31-.89,.43-1.81,.36-2.75-.15-2.17-1.04-3.88-3.08-4.86-1.06-.51-2.19-.64-3.35-.64-3.67,0-7.34,0-11.01,0-.13,0-.26,.01-.41,.02h0v17.52h.02c0,.92,0,1.83,0,2.75,0,.13,.02,.26,.02,.38h1.11v-3.13c0-1.62,0-3.24,0-4.86,0-.57,.02-.6,.59-.6,2.98,0,5.96,0,8.94,0,.32,0,.51,.11,.68,.37,1.8,2.66,3.61,5.3,5.43,7.95,.08,.12,.22,.27,.34,.28,.35,.04,.71,.01,1.14,.01-1.97-2.91-3.9-5.76-5.84-8.63Zm-10.94-1.06c-.13,0-.24,0-.35,.02v-9.92c3.55,0,7.1-.02,10.65,0,3,.02,4.92,1.91,4.94,4.77,.02,2.38-1.28,4.3-3.36,4.87-.64,.18-1.33,.23-2,.23-3.29,.02-6.58,0-9.88,.01Z"/>
      <path class="cls-2" d="M156.07,40.5c.13-.02,.18-.02,.24-.03,2.34-.34,4.08-1.49,4.8-3.81,.27-.86,.37-1.8,.35-2.71-.06-2.57-1.52-4.5-3.89-5.17-.81-.23-1.67-.32-2.51-.33-3.67-.03-7.34-.02-11.01-.01-.11,0-.22,.01-.33,.02h-.08v17.52h.02c0,.94,0,1.89,0,2.83,0,.1,.02,.2,.03,.31h1.1v-3.14h0v-5.03c.01-.41,.09-.42,.62-.42,2.97,0,5.94,0,8.91,0,.32,0,.51,.1,.69,.37,1.8,2.66,3.61,5.3,5.43,7.95,.08,.12,.22,.27,.34,.29,.35,.04,.71,.01,1.15,.01-1.97-2.91-3.89-5.75-5.85-8.64Zm-10.85-1.05c-.14,0-.29,0-.43,.02v-9.92c3.52,0,7.04,0,10.56,0,1.54,0,2.94,.44,3.97,1.66,.9,1.06,1.16,2.33,1.03,3.68-.19,1.92-1.06,3.4-2.91,4.18-.76,.32-1.57,.38-2.38,.37-3.28,0-6.56,0-9.84,0Z"/>
      <path class="cls-2" d="M187.22,48.73c-1.42-3.24-2.84-6.47-4.26-9.71v-.04h-.02c-.25-.57-.5-1.15-.76-1.72-1.09-2.48-2.18-4.96-3.27-7.44-.28-.64-.66-1.18-1.31-1.47-1.77-.8-3.59-.12-4.39,1.63-2.85,6.25-5.69,12.51-8.54,18.76-.05,.12-.1,.24-.16,.4,.29,0,.53-.02,.77,0,.34,.04,.49-.11,.63-.4,.95-2.11,1.91-4.22,2.87-6.33,.35-.76,.69-1.52,1.03-2.27h12.4c.19,.43,.37,.85,.56,1.28,1.08,2.47,2.16,4.93,3.25,7.4,.06,.13,.19,.29,.3,.31,.33,.04,.66,.01,1.04,.01-.06-.17-.1-.29-.16-.41Zm-16.88-9.75c1.29-2.83,2.58-5.66,3.86-8.49,.28-.61,.67-1.06,1.35-1.22,1.14-.27,1.95,.12,2.42,1.2,1.25,2.84,2.49,5.68,3.74,8.51h-11.37Z"/>
      <path class="cls-2" d="M115.18,39.74v-1h-16.19v-5.59c0-1.84,1.53-3.33,3.42-3.33h12.77v-.99h-12.77c-2.43,0-4.41,1.94-4.41,4.32v11.73c0,2.38,1.98,4.32,4.41,4.32h12.78v-.99h-12.78c-1.89,0-3.42-1.49-3.42-3.33v-5.14h16.19Z"/>
    </g>
  </g>
</svg>